<svg preserveAspectRatio="none" width="100%" height="100%" overflow="visible" style="display: block;" viewBox="0 0 139.008 34" fill="none" xmlns="http://www.w3.org/2000/svg">
<path id="Dribbble" d="M138.793 26.8404C132.986 36.6896 123.785 33.8319 121.019 31.5935C119.844 32.3926 117.781 34.1415 115.032 33.9365C109.174 33.5181 107.082 25.15 107.082 25.15C106.215 25.4889 105.3 25.6935 104.371 25.7567C104.371 28.2128 102.237 34.0746 96.5134 33.9993C90.0909 33.9156 88.7813 24.3425 88.7813 24.3425C88.7813 24.3425 88.1411 25.2295 85.7102 26.1124C85.8315 24.2254 85.7436 33.7106 78.045 33.8487C71.9572 33.9574 70.3129 24.1919 70.3129 24.1919C69.442 24.9731 68.3639 25.486 67.2083 25.6689C67.338 23.7526 67.1288 33.8779 59.426 33.8445C54.221 33.8236 52.4428 27.8278 52.5809 26.9952C52.7566 25.9366 50.8236 33.9909 45.7651 33.8654C43.6731 33.8026 42.125 32.2922 41.1626 30.2797C39.8572 31.7734 37.9577 33.8654 35.8322 33.8654C32.0121 33.8654 30.3301 30.6688 30.6147 21.5476C30.6398 20.4639 30.5603 20.0413 29.485 19.874C28.8406 19.7652 28.1795 19.5643 27.4766 19.4555C27.2507 20.2045 25.3511 33.6185 18.8115 33.8738C16.619 33.9574 15.4182 32.0579 14.4308 30.6479C12.9203 32.6478 10.9245 33.9365 8.08776 33.9365C3.27611 33.9365 0 30.0454 0 25.2505C0 20.4555 3.27611 16.5644 8.08776 16.5644C8.72598 16.563 9.35884 16.6808 9.95384 16.9116C8.35554 2.35954 12.1295 0.0875967 15.4308 0.0875967C18.6023 0.0875967 24.0164 7.44315 16.3973 26.1082C18.0709 31.673 21.7361 31.3592 23.4892 19.9032C23.8449 17.5727 22.8909 14.4305 24.3763 13.9912C27.0875 13.1878 27.3762 15.5937 28.6482 15.9953C29.9912 16.4137 30.7778 16.3761 32.0665 16.6481C34.2715 17.0665 35.1334 18.2631 34.8656 20.9032C34.5435 24.2505 33.9786 29.104 35.7025 29.6897C36.9577 30.1081 39.2087 27.5475 39.6062 26.1375C39.9225 25.1923 40.096 24.2051 40.1208 23.2086C40.1012 21.3639 40.268 19.522 40.6187 17.7108C40.7819 17.0665 40.9618 16.6355 41.694 16.6062C42.2965 16.6062 43.3969 16.4096 43.8781 16.7861C44.5224 17.2715 44.4429 17.7652 44.3676 19.0581C43.6187 37.5223 49.3885 28.3048 51.1165 20.9241C50.5014 12.5812 50.924 0.229856 56.1373 0.00391709C58.857 -0.104868 60.0578 2.07502 60.1917 3.70261C60.5641 8.30506 58.472 15.9033 55.7148 21.0204C54.1416 31.4805 62.6017 33.5265 63.9531 25.2044C61.7398 24.15 59.3507 19.8907 61.2921 17.8154C62.3841 16.6522 66.9322 18.3259 67.0075 21.9743C69.2376 21.376 69.5179 20.1166 69.5681 20.3258C68.9531 11.9828 69.5221 0.242407 74.7522 0.0164687C77.4718 -0.0923165 78.6726 2.08757 78.8065 3.71516C79.1789 8.31761 77.0869 15.9158 74.3296 21.0329C72.7564 31.493 81.2165 33.539 82.568 25.217C80.9278 24.899 77.4676 20.3677 79.4634 17.8279C80.5303 16.4681 85.0617 19.2924 85.5679 22.1082C87.7102 21.5015 88.003 20.284 88.0323 20.489C87.4173 12.146 87.9863 0.405585 93.2164 0.179646C95.936 0.0708611 97.1368 2.25075 97.2707 3.87834C97.6431 8.48079 95.5511 16.079 92.7938 21.1961C91.2206 31.6562 99.6807 33.7022 101.032 25.3802C98.7811 25.0036 95.5929 20.2212 98.1535 17.7736C99.1828 16.7945 103.116 19.3342 104.036 22.2296C104.812 22.1925 105.574 22.0108 106.283 21.694C104.241 11.8992 105.76 0.141993 111.388 0.0457601C114.429 -0.00863249 117.4 1.69009 116.095 11.008C114.839 19.8991 110.371 23.6312 110.383 23.6898C110.643 24.7567 112.94 33.6687 118.726 28.9659C118.388 28.2609 118.131 27.5198 117.961 26.7567C117.003 21.8697 118.885 16.3468 124.003 15.4598C126.931 14.9493 129.697 16.3761 130.136 19.5936C130.856 24.8613 126.099 28.6772 124.279 29.5056C123.467 29.0454 131.622 34.2754 136.463 23.7944C136.743 23.1961 137.082 23.2463 137.521 23.5559C137.848 23.7567 139.613 25.4262 138.793 26.8404ZM11.5982 23.9576C11.3513 23.2212 10.845 21.5978 10.6693 20.8949C9.68607 20.0581 8.9957 19.8991 7.74048 19.8991C4.93299 19.8991 3.28029 22.4932 3.28029 25.2923C3.28029 28.0914 5.07943 30.6855 7.88274 30.6855C10.3137 30.6855 12.1672 29.0119 12.7321 26.6898C12.2969 25.7944 11.9036 24.9576 11.5773 23.9576H11.5982ZM15.3638 3.94111C13.3931 3.94111 12.7237 8.64816 12.8534 12.6607C12.9767 15.418 13.5228 18.1401 14.4726 20.7317C14.6023 20.9074 14.5772 20.7944 14.6944 20.9785C18.1085 13.4724 16.6902 3.93692 15.3513 3.93692L15.3638 3.94111ZM56.4344 4.08754C53.8863 3.79466 53.9031 14.4138 54.2169 16.7945C55.539 14.6774 57.8402 4.66076 56.4344 4.08754ZM75.0492 4.08754C72.5011 3.79466 72.5179 14.4138 72.8317 16.7945C74.1455 14.6774 76.4467 4.65657 75.0409 4.08754H75.0492ZM93.5176 4.23399C90.9695 3.9411 90.9862 14.5602 91.3001 16.9451C92.6222 14.828 94.9234 4.81139 93.5176 4.23399ZM111.689 3.46412C107.718 4.26328 108.643 17.5058 109.245 19.8279C113.923 13.4012 114.019 3.22563 111.689 3.46412ZM126.576 20.012C126.444 19.624 126.182 19.2936 125.834 19.0776C125.486 18.8616 125.074 18.7733 124.668 18.8279C122.672 19.0999 120.739 21.5852 121.488 25.3634C121.606 25.9175 121.8 26.4525 122.065 26.9534C126.517 23.9618 126.894 21.6103 126.563 20.012H126.576ZM42.4764 13.6899C41.7608 13.6885 41.0713 13.4209 40.5421 12.9393C40.0128 12.4576 39.6816 11.7964 39.6129 11.0841C39.5441 10.3718 39.7427 9.65938 40.1701 9.08541C40.5975 8.51145 41.2231 8.11696 41.9252 7.97867C42.6273 7.84037 43.3558 7.96815 43.9689 8.33717C44.582 8.70618 45.036 9.29005 45.2425 9.97521C45.449 10.6604 45.3933 11.3978 45.0862 12.0442C44.7791 12.6906 44.2426 13.1996 43.581 13.4724C43.2307 13.6168 42.8553 13.6907 42.4764 13.6899Z" fill="var(--fill-0, #2D2D2D)"/>
</svg>
